<?xml version="1.0" encoding="utf-8"?><!-- Uploaded to: SVG Repo, www.svgrepo.com, Generator: SVG Repo Mixer Tools -->
<svg fill="#000000" width="800px" height="800px" viewBox="0 0 24 24" id="file-folder-document" data-name="Flat Line" xmlns="http://www.w3.org/2000/svg" class="icon flat-line"><path id="secondary" d="M19,11V4a1,1,0,0,0-1-1H6A1,1,0,0,0,5,4V9h8.59a1,1,0,0,1,.7.29L16,11Z" style="fill: rgb(44, 169, 188); stroke-width: 2;"></path><path id="primary" d="M16,11,14.29,9.29a1,1,0,0,0-.7-.29H5V4A1,1,0,0,1,6,3H18a1,1,0,0,1,1,1v7ZM7,17h4m2.59-8H4a1,1,0,0,0-1,1V20a1,1,0,0,0,1,1H20a1,1,0,0,0,1-1V12a1,1,0,0,0-1-1H16L14.29,9.29A1,1,0,0,0,13.59,9Z" style="fill: none; stroke: rgb(0, 0, 0); stroke-linecap: round; stroke-linejoin: round; stroke-width: 2;"></path></svg>