<?xml version="1.0" encoding="utf-8"?><!-- Uploaded to: SVG Repo, www.svgrepo.com, Generator: SVG Repo Mixer Tools -->
<svg fill="#000000" width="800px" height="800px" viewBox="0 0 24 24" id="file-video-4" data-name="Flat Line" xmlns="http://www.w3.org/2000/svg" class="icon flat-line"><path id="secondary" d="M18,3H9L5,7V20a1,1,0,0,0,1,1H18a1,1,0,0,0,1-1V4A1,1,0,0,0,18,3ZM11,13.5v-3L13,12Z" style="fill: rgb(44, 169, 188); stroke-width: 2;"></path><path id="primary" d="M11,13.5v-3L13,12ZM18,21a1,1,0,0,0,1-1V4a1,1,0,0,0-1-1H9L5,7V20a1,1,0,0,0,1,1Z" style="fill: none; stroke: rgb(0, 0, 0); stroke-linecap: round; stroke-linejoin: round; stroke-width: 2;"></path></svg>